# xmcd
#
# Track frame offsets:
#	180
#	13504
#	29226
#	45629
#	54754
#	72329
#	86492
#	99172
#	112095
#	131046
#	149783
#	173163
#	191216
#	205863
#
# Disc length: 2949 seconds
#
# Revision: 0
# Processed by: cddbd v1.5.1PL0 Copyright (c) Steve Scherf et al.
# Submitted via: dBpowerAMP V4.0
#
DISCID=cd0b830e
DTITLE=Shirley Bassey - Shirley Bassey
DYEAR=1995
DGENRE=Ballad
TTITLE0=What Now My Love
TTITLE1=Something
TTITLE2=Kiss Me Honey Honey
TTITLE3=Big Spender
TTITLE4=Send In The Clowns
TTITLE5=I Am What I Am
TTITLE6=Goldfinger
TTITLE7=I Who Have Nothing
TTITLE8=Natalie
TTITLE9=All By Myself
TTITLE10=This Masquerade
TTITLE11=New York - State Of Mine
TTITLE12=Only When I Laugh
TTITLE13=New York - New York
EXTD=
EXTT0=
EXTT1=
EXTT2=
EXTT3=
EXTT4=
EXTT5=
EXTT6=
EXTT7=
EXTT8=
EXTT9=
EXTT10=
EXTT11=
EXTT12=
EXTT13=
PLAYORDER=
